# xmcd
#
# Track frame offsets: 
#        150
#        20988
#        46472
#        81109
#        107370
#        124888
#        143940
#        176753
#        204429
#        219917
#        236314
#        265506
#        292220
#        317817
#        342899
#
# Disc length: 4811 seconds
#
# Revision: 0
# Processed by: cddbd v1.5.2PL0 Copyright (c) Steve Scherf et al.
# Submitted via: ExactAudioCopy v1.3
#
DISCID=dd12c90f
DTITLE=Enrico Crivellaro - Walkn' And Walkn' [ disk 2 ]
DYEAR=1996
DGENRE=Electric Blues
TTITLE0=You're In For A Big Suprise
TTITLE1=Black Jack
TTITLE2=Cherokee
TTITLE3=Super Cooker
TTITLE4=Rain Is A Bringdown
TTITLE5=Speedin'
TTITLE6=Blues For Larry Johnson
TTITLE7=Last Night In Atlanta
TTITLE8=Key To My Kingdom
TTITLE9=Universal Rock
TTITLE10=Cape Flats
TTITLE11=Chulahoma
TTITLE12=Sweet And Skanky
TTITLE13=T-Soul
TTITLE14=Makin' Money
EXTD=
EXTT0=
EXTT1=
EXTT2=
EXTT3=
EXTT4=
EXTT5=
EXTT6=
EXTT7=
EXTT8=
EXTT9=
EXTT10=
EXTT11=
EXTT12=
EXTT13=
EXTT14=
PLAYORDER=
